<mxfile host="app.diagrams.net" modified="2024-05-03T15:50:28.741Z" agent="Mozilla/5.0 (X11; Ubuntu; Linux x86_64; rv:125.0) Gecko/20100101 Firefox/125.0" etag="DsCZOImVEAzBkkF2HNVM" version="24.2.8" type="github">
  <diagram id="C5RBs43oDa-KdzZeNtuy" name="Page-1">
    <mxGraphModel dx="1194" dy="573" grid="1" gridSize="10" guides="1" tooltips="1" connect="1" arrows="1" fold="1" page="1" pageScale="1" pageWidth="827" pageHeight="1169" math="0" shadow="0">
      <root>
        <mxCell id="WIyWlLk6GJQsqaUBKTNV-0" />
        <mxCell id="WIyWlLk6GJQsqaUBKTNV-1" parent="WIyWlLk6GJQsqaUBKTNV-0" />
        <mxCell id="mxmMOKCQybVw6XQjljeT-11" style="edgeStyle=orthogonalEdgeStyle;rounded=0;orthogonalLoop=1;jettySize=auto;html=1;entryX=0.5;entryY=0;entryDx=0;entryDy=0;" edge="1" parent="WIyWlLk6GJQsqaUBKTNV-1" source="mxmMOKCQybVw6XQjljeT-0" target="mxmMOKCQybVw6XQjljeT-10">
          <mxGeometry relative="1" as="geometry" />
        </mxCell>
        <mxCell id="mxmMOKCQybVw6XQjljeT-0" value="Start" style="rounded=1;whiteSpace=wrap;html=1;" vertex="1" parent="WIyWlLk6GJQsqaUBKTNV-1">
          <mxGeometry x="120" y="30" width="120" height="60" as="geometry" />
        </mxCell>
        <mxCell id="mxmMOKCQybVw6XQjljeT-13" value="" style="edgeStyle=orthogonalEdgeStyle;rounded=0;orthogonalLoop=1;jettySize=auto;html=1;" edge="1" parent="WIyWlLk6GJQsqaUBKTNV-1" source="mxmMOKCQybVw6XQjljeT-10" target="mxmMOKCQybVw6XQjljeT-12">
          <mxGeometry relative="1" as="geometry" />
        </mxCell>
        <mxCell id="mxmMOKCQybVw6XQjljeT-10" value="cin userOption" style="shape=parallelogram;perimeter=parallelogramPerimeter;whiteSpace=wrap;html=1;fixedSize=1;" vertex="1" parent="WIyWlLk6GJQsqaUBKTNV-1">
          <mxGeometry x="90" y="160" width="180" height="70" as="geometry" />
        </mxCell>
        <mxCell id="mxmMOKCQybVw6XQjljeT-18" style="edgeStyle=orthogonalEdgeStyle;rounded=0;orthogonalLoop=1;jettySize=auto;html=1;" edge="1" parent="WIyWlLk6GJQsqaUBKTNV-1" source="mxmMOKCQybVw6XQjljeT-12" target="mxmMOKCQybVw6XQjljeT-15">
          <mxGeometry relative="1" as="geometry" />
        </mxCell>
        <mxCell id="mxmMOKCQybVw6XQjljeT-21" value="" style="edgeStyle=orthogonalEdgeStyle;rounded=0;orthogonalLoop=1;jettySize=auto;html=1;" edge="1" parent="WIyWlLk6GJQsqaUBKTNV-1" source="mxmMOKCQybVw6XQjljeT-12" target="mxmMOKCQybVw6XQjljeT-20">
          <mxGeometry relative="1" as="geometry" />
        </mxCell>
        <mxCell id="mxmMOKCQybVw6XQjljeT-12" value="&lt;div&gt;Does userOption&lt;/div&gt;&lt;div&gt;!= 2&lt;br&gt;&lt;/div&gt;" style="rhombus;whiteSpace=wrap;html=1;" vertex="1" parent="WIyWlLk6GJQsqaUBKTNV-1">
          <mxGeometry x="400" y="127.5" width="140" height="135" as="geometry" />
        </mxCell>
        <mxCell id="mxmMOKCQybVw6XQjljeT-17" style="edgeStyle=orthogonalEdgeStyle;rounded=0;orthogonalLoop=1;jettySize=auto;html=1;" edge="1" parent="WIyWlLk6GJQsqaUBKTNV-1" source="mxmMOKCQybVw6XQjljeT-15" target="mxmMOKCQybVw6XQjljeT-16">
          <mxGeometry relative="1" as="geometry" />
        </mxCell>
        <mxCell id="mxmMOKCQybVw6XQjljeT-15" value="Save money to wallet" style="shape=parallelogram;perimeter=parallelogramPerimeter;whiteSpace=wrap;html=1;fixedSize=1;" vertex="1" parent="WIyWlLk6GJQsqaUBKTNV-1">
          <mxGeometry x="560" y="370" width="200" height="80" as="geometry" />
        </mxCell>
        <mxCell id="mxmMOKCQybVw6XQjljeT-16" value="end" style="rounded=1;whiteSpace=wrap;html=1;" vertex="1" parent="WIyWlLk6GJQsqaUBKTNV-1">
          <mxGeometry x="510" y="620" width="120" height="60" as="geometry" />
        </mxCell>
        <mxCell id="mxmMOKCQybVw6XQjljeT-19" value="NO" style="text;html=1;align=center;verticalAlign=middle;resizable=0;points=[];autosize=1;strokeColor=none;fillColor=none;" vertex="1" parent="WIyWlLk6GJQsqaUBKTNV-1">
          <mxGeometry x="600" y="158" width="40" height="30" as="geometry" />
        </mxCell>
        <mxCell id="mxmMOKCQybVw6XQjljeT-22" style="edgeStyle=orthogonalEdgeStyle;rounded=0;orthogonalLoop=1;jettySize=auto;html=1;entryX=0.5;entryY=1;entryDx=0;entryDy=0;" edge="1" parent="WIyWlLk6GJQsqaUBKTNV-1" source="mxmMOKCQybVw6XQjljeT-20" target="mxmMOKCQybVw6XQjljeT-10">
          <mxGeometry relative="1" as="geometry" />
        </mxCell>
        <mxCell id="mxmMOKCQybVw6XQjljeT-25" style="edgeStyle=orthogonalEdgeStyle;rounded=0;orthogonalLoop=1;jettySize=auto;html=1;entryX=1;entryY=0.5;entryDx=0;entryDy=0;" edge="1" parent="WIyWlLk6GJQsqaUBKTNV-1" source="mxmMOKCQybVw6XQjljeT-20" target="mxmMOKCQybVw6XQjljeT-24">
          <mxGeometry relative="1" as="geometry">
            <Array as="points">
              <mxPoint x="455" y="510" />
            </Array>
          </mxGeometry>
        </mxCell>
        <mxCell id="mxmMOKCQybVw6XQjljeT-20" value="&lt;div&gt;Does userOption&lt;/div&gt;&lt;div&gt;== 1&lt;br&gt;&lt;/div&gt;" style="rhombus;whiteSpace=wrap;html=1;" vertex="1" parent="WIyWlLk6GJQsqaUBKTNV-1">
          <mxGeometry x="390" y="320" width="130" height="130" as="geometry" />
        </mxCell>
        <mxCell id="mxmMOKCQybVw6XQjljeT-23" value="NO" style="text;html=1;align=center;verticalAlign=middle;resizable=0;points=[];autosize=1;strokeColor=none;fillColor=none;" vertex="1" parent="WIyWlLk6GJQsqaUBKTNV-1">
          <mxGeometry x="280" y="360" width="40" height="30" as="geometry" />
        </mxCell>
        <mxCell id="mxmMOKCQybVw6XQjljeT-29" style="edgeStyle=orthogonalEdgeStyle;rounded=0;orthogonalLoop=1;jettySize=auto;html=1;" edge="1" parent="WIyWlLk6GJQsqaUBKTNV-1" source="mxmMOKCQybVw6XQjljeT-24" target="mxmMOKCQybVw6XQjljeT-28">
          <mxGeometry relative="1" as="geometry" />
        </mxCell>
        <mxCell id="mxmMOKCQybVw6XQjljeT-24" value="draw cards" style="shape=parallelogram;perimeter=parallelogramPerimeter;whiteSpace=wrap;html=1;fixedSize=1;" vertex="1" parent="WIyWlLk6GJQsqaUBKTNV-1">
          <mxGeometry x="160" y="480" width="120" height="60" as="geometry" />
        </mxCell>
        <mxCell id="mxmMOKCQybVw6XQjljeT-26" value="YES" style="text;html=1;align=center;verticalAlign=middle;resizable=0;points=[];autosize=1;strokeColor=none;fillColor=none;" vertex="1" parent="WIyWlLk6GJQsqaUBKTNV-1">
          <mxGeometry x="445" y="468" width="50" height="30" as="geometry" />
        </mxCell>
        <mxCell id="mxmMOKCQybVw6XQjljeT-31" style="edgeStyle=orthogonalEdgeStyle;rounded=0;orthogonalLoop=1;jettySize=auto;html=1;" edge="1" parent="WIyWlLk6GJQsqaUBKTNV-1" source="mxmMOKCQybVw6XQjljeT-28" target="mxmMOKCQybVw6XQjljeT-30">
          <mxGeometry relative="1" as="geometry" />
        </mxCell>
        <mxCell id="mxmMOKCQybVw6XQjljeT-28" value="bet" style="shape=parallelogram;perimeter=parallelogramPerimeter;whiteSpace=wrap;html=1;fixedSize=1;" vertex="1" parent="WIyWlLk6GJQsqaUBKTNV-1">
          <mxGeometry x="160" y="600" width="120" height="60" as="geometry" />
        </mxCell>
        <mxCell id="mxmMOKCQybVw6XQjljeT-32" style="edgeStyle=orthogonalEdgeStyle;rounded=0;orthogonalLoop=1;jettySize=auto;html=1;entryX=0;entryY=0.5;entryDx=0;entryDy=0;" edge="1" parent="WIyWlLk6GJQsqaUBKTNV-1" source="mxmMOKCQybVw6XQjljeT-30" target="mxmMOKCQybVw6XQjljeT-15">
          <mxGeometry relative="1" as="geometry">
            <Array as="points">
              <mxPoint x="395" y="540" />
              <mxPoint x="520" y="540" />
              <mxPoint x="520" y="410" />
            </Array>
          </mxGeometry>
        </mxCell>
        <mxCell id="mxmMOKCQybVw6XQjljeT-37" style="edgeStyle=orthogonalEdgeStyle;rounded=0;orthogonalLoop=1;jettySize=auto;html=1;exitX=0.5;exitY=1;exitDx=0;exitDy=0;entryX=1;entryY=0.5;entryDx=0;entryDy=0;" edge="1" parent="WIyWlLk6GJQsqaUBKTNV-1" source="mxmMOKCQybVw6XQjljeT-30" target="mxmMOKCQybVw6XQjljeT-34">
          <mxGeometry relative="1" as="geometry" />
        </mxCell>
        <mxCell id="mxmMOKCQybVw6XQjljeT-30" value="&lt;div&gt;Does fold&lt;/div&gt;&lt;div&gt;==&lt;/div&gt;&lt;div&gt;true&lt;br&gt;&lt;/div&gt;" style="rhombus;whiteSpace=wrap;html=1;" vertex="1" parent="WIyWlLk6GJQsqaUBKTNV-1">
          <mxGeometry x="340" y="575" width="110" height="110" as="geometry" />
        </mxCell>
        <mxCell id="mxmMOKCQybVw6XQjljeT-33" value="YES" style="text;html=1;align=center;verticalAlign=middle;resizable=0;points=[];autosize=1;strokeColor=none;fillColor=none;" vertex="1" parent="WIyWlLk6GJQsqaUBKTNV-1">
          <mxGeometry x="415" y="548" width="50" height="30" as="geometry" />
        </mxCell>
        <mxCell id="mxmMOKCQybVw6XQjljeT-35" style="edgeStyle=orthogonalEdgeStyle;rounded=0;orthogonalLoop=1;jettySize=auto;html=1;" edge="1" parent="WIyWlLk6GJQsqaUBKTNV-1" source="mxmMOKCQybVw6XQjljeT-34" target="mxmMOKCQybVw6XQjljeT-28">
          <mxGeometry relative="1" as="geometry" />
        </mxCell>
        <mxCell id="mxmMOKCQybVw6XQjljeT-41" style="edgeStyle=orthogonalEdgeStyle;rounded=0;orthogonalLoop=1;jettySize=auto;html=1;entryX=0;entryY=0.5;entryDx=0;entryDy=0;" edge="1" parent="WIyWlLk6GJQsqaUBKTNV-1" source="mxmMOKCQybVw6XQjljeT-34" target="mxmMOKCQybVw6XQjljeT-40">
          <mxGeometry relative="1" as="geometry">
            <Array as="points">
              <mxPoint x="220" y="850" />
            </Array>
          </mxGeometry>
        </mxCell>
        <mxCell id="mxmMOKCQybVw6XQjljeT-34" value="&lt;div&gt;has bet been called &lt;br&gt;&lt;/div&gt;&lt;div&gt;5 times?&lt;br&gt;&lt;/div&gt;" style="rhombus;whiteSpace=wrap;html=1;" vertex="1" parent="WIyWlLk6GJQsqaUBKTNV-1">
          <mxGeometry x="147.5" y="700" width="145" height="150" as="geometry" />
        </mxCell>
        <mxCell id="mxmMOKCQybVw6XQjljeT-38" value="NO" style="text;html=1;align=center;verticalAlign=middle;resizable=0;points=[];autosize=1;strokeColor=none;fillColor=none;" vertex="1" parent="WIyWlLk6GJQsqaUBKTNV-1">
          <mxGeometry x="360" y="708" width="40" height="30" as="geometry" />
        </mxCell>
        <mxCell id="mxmMOKCQybVw6XQjljeT-39" value="NO" style="text;html=1;align=center;verticalAlign=middle;resizable=0;points=[];autosize=1;strokeColor=none;fillColor=none;" vertex="1" parent="WIyWlLk6GJQsqaUBKTNV-1">
          <mxGeometry x="220" y="678" width="40" height="30" as="geometry" />
        </mxCell>
        <mxCell id="mxmMOKCQybVw6XQjljeT-43" style="edgeStyle=orthogonalEdgeStyle;rounded=0;orthogonalLoop=1;jettySize=auto;html=1;entryX=1;entryY=0.5;entryDx=0;entryDy=0;" edge="1" parent="WIyWlLk6GJQsqaUBKTNV-1" source="mxmMOKCQybVw6XQjljeT-40" target="mxmMOKCQybVw6XQjljeT-15">
          <mxGeometry relative="1" as="geometry">
            <Array as="points">
              <mxPoint x="750" y="850" />
            </Array>
          </mxGeometry>
        </mxCell>
        <mxCell id="mxmMOKCQybVw6XQjljeT-40" value="&lt;div&gt;call hand algorithm&lt;/div&gt;&lt;div&gt;functions to determine winner&lt;br&gt;&lt;/div&gt;" style="shape=parallelogram;perimeter=parallelogramPerimeter;whiteSpace=wrap;html=1;fixedSize=1;" vertex="1" parent="WIyWlLk6GJQsqaUBKTNV-1">
          <mxGeometry x="370" y="820" width="200" height="60" as="geometry" />
        </mxCell>
        <mxCell id="mxmMOKCQybVw6XQjljeT-42" value="YES" style="text;html=1;align=center;verticalAlign=middle;resizable=0;points=[];autosize=1;strokeColor=none;fillColor=none;" vertex="1" parent="WIyWlLk6GJQsqaUBKTNV-1">
          <mxGeometry x="285" y="818" width="50" height="30" as="geometry" />
        </mxCell>
      </root>
    </mxGraphModel>
  </diagram>
</mxfile>
